# xmcd
#
# Track frame offsets: 
#        150
#        30355
#        58229
#        88628
#        116946
#        132790
#        159925
#        183477
#        223812
#
# Disc length: 3379 seconds
#
# Revision: 1
# Processed by: cddbd v1.5.2PL0 Copyright (c) Steve Scherf et al.
# Submitted via: ExactAudioCopy v0.99pb5
#
DISCID=7b0d3109
DTITLE=RAY MANZAREK and ROY ROGERS - BALLADS BEFORE THE RAIN
DYEAR=2008
DGENRE=Blues
TTITLE0=GNOSSIENNE NO. 1
TTITLE1=B.E. IN MEMORIUM
TTITLE2=EL AMOR BRUJO
TTITLE3=REMEMBERING YOU
TTITLE4=CRYSTAL SHIP
TTITLE5=LOVE IS A DANGEROUS PLACE
TTITLE6=RUBY RED NAILS
TTITLE7=RIDERS ON THE STORM
TTITLE8=AMERICAN PASTORAL
EXTD=
EXTT0=
EXTT1=
EXTT2=
EXTT3=
EXTT4=
EXTT5=
EXTT6=
EXTT7=
EXTT8=
PLAYORDER=
